<svg width="37" height="37" viewBox="0 0 37 37" fill="none" xmlns="http://www.w3.org/2000/svg">
<path d="M30.6257 0.105568C30.3535 0.162889 29.8161 0.356348 29.4435 0.535477L28.7628 0.865072L19.6918 9.94329L10.6135 19.0143L9.245 23.1343C8.46401 25.4988 7.87646 27.3689 7.87646 27.5193C7.87646 28.2287 8.44251 28.7947 9.14469 28.7947C9.30949 28.7947 11.1008 28.2359 13.5369 27.4262L17.6569 26.0577L26.7279 16.9794L35.8061 7.90839L36.1357 7.22771C36.8594 5.72303 36.8594 4.28284 36.1286 2.78533C35.8563 2.21928 35.6987 2.00433 35.1828 1.48844C34.6669 0.965384 34.4591 0.814917 33.8859 0.542641C32.7896 0.0195866 31.7435 -0.123716 30.6257 0.105568ZM32.6678 2.86414C33.1407 3.09343 33.5491 3.48034 33.7999 3.96757C33.9647 4.28284 33.9934 4.41181 33.9934 5.00652C33.9934 5.58689 33.9647 5.74452 33.8214 6.04546C33.6781 6.33206 31.8581 8.18783 24.9868 15.0735L16.3313 23.7433L13.8092 24.5816C12.4263 25.0474 11.2799 25.4128 11.2656 25.4056C11.2584 25.3913 11.6238 24.252 12.0752 22.8763L12.9064 20.3757L21.3756 11.8994C26.0257 7.23487 29.9594 3.32271 30.1099 3.2009C30.2603 3.0791 30.5684 2.89997 30.7905 2.80682C31.3494 2.57754 32.1018 2.59903 32.6678 2.86414Z" fill="#112D4E"/>
<path d="M2.90403 2.74952C1.89374 3.02896 0.955111 3.7813 0.482213 4.69127C-0.0408415 5.68722 -0.012181 4.61245 0.00931439 19.8527L0.0308098 33.5596L0.217103 34.0396C0.317415 34.3047 0.510873 34.6773 0.632681 34.878C1.17723 35.7234 2.252 36.4399 3.21929 36.6047C3.54889 36.6621 7.28908 36.6764 16.009 36.6621L28.3331 36.6406L28.8275 36.4471C30.1315 35.9384 31.0701 34.8565 31.3424 33.5381C31.4356 33.0938 31.4499 32.0406 31.4356 26.115L31.4141 19.2221L31.2421 18.9642C30.8839 18.4483 30.2605 18.219 29.7088 18.3982C29.3863 18.5056 28.9779 18.957 28.8776 19.3153C28.8275 19.4944 28.7988 21.7873 28.7988 26.3013C28.7988 30.8655 28.7773 33.0795 28.72 33.2156C28.6268 33.4593 28.3259 33.7889 28.068 33.925C27.9032 34.011 26.0402 34.0253 15.7153 34.0253H3.55605L3.26228 33.8533C3.09748 33.7602 2.89686 33.5524 2.80371 33.3948L2.64608 33.1082L2.66041 19.5732L2.68191 6.03115L2.8897 5.76604C3.00434 5.61557 3.22646 5.42927 3.39125 5.35762C3.67069 5.22865 4.02895 5.22149 11.7959 5.22149C17.3489 5.22149 19.9714 5.19999 20.1075 5.14267C20.5876 4.96354 20.9243 4.46915 20.9315 3.93893C20.9315 3.45886 20.7094 3.05045 20.3225 2.82117L20.0072 2.64204L11.6312 2.6492C4.82428 2.65637 3.19063 2.6707 2.90403 2.74952Z" fill="#112D4E"/>
</svg>
