<svg width="29" height="29" viewBox="0 0 29 29" fill="none" xmlns="http://www.w3.org/2000/svg">
<path d="M23.8796 0.0824623C23.6673 0.127157 23.2483 0.278 22.9578 0.417669L22.427 0.674662L15.3542 7.7531L8.27575 14.826L7.20868 18.0384C6.59972 19.882 6.1416 21.3401 6.1416 21.4575C6.1416 22.0105 6.58296 22.4519 7.13046 22.4519C7.25896 22.4519 8.65565 22.0161 10.5552 21.3848L13.7675 20.3178L20.8404 13.2393L27.9188 6.16646L28.1758 5.63572C28.7401 4.46249 28.7401 3.33955 28.1703 2.17192C27.958 1.73056 27.835 1.56296 27.4328 1.16071C27.0306 0.752876 26.8685 0.635553 26.4216 0.423256C25.5668 0.0154209 24.7511 -0.0963135 23.8796 0.0824623ZM25.4718 2.23337C25.8406 2.41215 26.159 2.71383 26.3546 3.09373C26.483 3.33955 26.5054 3.44011 26.5054 3.90382C26.5054 4.35634 26.483 4.47925 26.3713 4.7139C26.2596 4.93737 24.8405 6.38434 19.4828 11.7532L12.734 18.5132L10.7675 19.1669C9.6892 19.53 8.79532 19.8149 8.78415 19.8094C8.77856 19.7982 9.06348 18.9099 9.41545 17.8372L10.0635 15.8874L16.6671 9.27829C20.2929 5.6413 23.36 2.59092 23.4774 2.49595C23.5947 2.40097 23.8349 2.2613 24.0081 2.18868C24.4439 2.0099 25.0305 2.02666 25.4718 2.23337Z" fill="#F9F7F7"/>
<path d="M2.26432 2.14386C1.47658 2.36174 0.744717 2.94835 0.37599 3.65788C-0.0318448 4.43444 -0.00949773 3.59642 0.00726259 15.4795L0.0240229 26.167L0.169279 26.5413C0.247494 26.748 0.398337 27.0385 0.493312 27.195C0.917907 27.8542 1.75592 28.4129 2.51014 28.5414C2.76713 28.5861 5.68343 28.5972 12.4825 28.5861L22.0918 28.5693L22.4773 28.4185C23.4941 28.0218 24.2259 27.1782 24.4382 26.1502C24.5109 25.8038 24.522 24.9826 24.5109 20.3623L24.4941 14.9879L24.36 14.7867C24.0807 14.3845 23.5946 14.2057 23.1644 14.3454C22.913 14.4292 22.5946 14.7811 22.5164 15.0605C22.4773 15.2001 22.4549 16.9879 22.4549 20.5076C22.4549 24.0664 22.4382 25.7927 22.3935 25.8988C22.3208 26.0888 22.0862 26.3458 21.8851 26.4519C21.7566 26.519 20.304 26.5301 12.2535 26.5301H2.77272L2.54366 26.396C2.41516 26.3234 2.25873 26.1614 2.1861 26.0385L2.0632 25.815L2.07437 15.2616L2.09113 4.7026L2.25315 4.49589C2.34253 4.37857 2.51572 4.23331 2.64422 4.17744C2.8621 4.07688 3.14144 4.0713 9.19751 4.0713C13.5273 4.0713 15.572 4.05453 15.6782 4.00984C16.0525 3.87017 16.3151 3.48468 16.3206 3.07126C16.3206 2.69695 16.1475 2.3785 15.8458 2.19973L15.5999 2.06006L9.06901 2.06565C3.76157 2.07123 2.48779 2.08241 2.26432 2.14386Z" fill="#F9F7F7"/>
</svg>
