<svg width="112" height="107" viewBox="0 0 112 107" fill="none" xmlns="http://www.w3.org/2000/svg">
<path d="M54.2016 0.420898C53.8524 0.639168 53.394 1.01022 53.1976 1.22849C53.0012 1.44675 49.7708 9.28249 46.0167 18.6461C42.2407 27.9878 39.0758 35.649 38.9448 35.6926C38.8139 35.7363 30.6071 36.3256 20.6978 37.0022C0.573751 38.3773 1.38133 38.2682 0.420964 39.9706C-0.212006 41.0838 -0.1247 42.4807 0.63923 43.4192C0.922975 43.7903 7.09989 49.0941 14.3681 55.2274C21.6364 61.3825 27.857 66.6645 28.1843 66.9919L28.7955 67.5812L24.2992 85.5227C21.8328 95.3883 19.8248 103.682 19.8248 103.944C19.8248 104.752 20.7415 106.105 21.5709 106.542C21.9856 106.782 22.7495 106.956 23.2515 106.956C24.0591 106.956 25.6525 106.018 39.9925 97.0471L55.8386 87.116L71.7283 97.0471L87.5963 107L88.7094 106.913C90.1718 106.782 91.0448 106.149 91.5469 104.839L91.9397 103.835L87.4216 85.7409C84.9334 75.788 82.9472 67.5594 83.0127 67.4503C83.0782 67.363 89.4079 61.95 97.069 55.4457C106.585 47.3917 111.147 43.3756 111.365 42.8954C111.846 41.8914 111.802 40.931 111.234 39.927C110.296 38.2682 111.06 38.3773 90.7611 36.9586L72.5359 35.6926L65.6606 18.6243C61.8627 9.23883 58.5888 1.35944 58.3487 1.09753C57.3228 -0.0374603 55.4239 -0.343033 54.2016 0.420898Z" fill="#F9F7F7"/>
</svg>
