<svg width="107" height="108" viewBox="0 0 107 108" fill="none" xmlns="http://www.w3.org/2000/svg">
<path d="M26.4987 0.166019C24.91 0.688605 23.844 1.62926 23.175 3.1134C22.7988 3.94954 22.7361 4.49303 22.7361 7.62854V11.2239L16.3187 11.3075C10.424 11.3912 9.75504 11.4539 8.50084 11.8719C6.78676 12.4154 4.86364 13.6696 3.69305 14.9865C2.64788 16.178 1.49819 18.4774 1.20554 20.0243C1.08012 20.7559 0.996508 34.364 0.996508 59.3227C0.996508 101.548 0.912894 98.9138 2.35523 101.464C3.25408 103.074 4.92635 104.746 6.53592 105.645C9.10704 107.087 5.92972 107.003 53.6731 107.003C101.417 107.003 98.2392 107.087 100.81 105.645C102.42 104.746 104.092 103.074 104.991 101.464C106.433 98.9138 106.35 101.569 106.35 59.1346C106.35 17.0978 106.433 19.7525 105.116 17.1605C103.883 14.7357 101.521 12.729 98.8454 11.8719C97.5912 11.4539 96.9223 11.3912 91.0694 11.3075L84.652 11.2239L84.5684 7.62854C84.5057 4.59755 84.4221 3.90773 84.0667 3.1134C83.1888 1.21119 81.5792 0.145116 79.3426 0.0196951C76.8969 -0.126629 75.1201 0.772219 74.0331 2.73714C73.4478 3.82412 73.4269 3.90773 73.3642 7.54493L73.2806 11.2657H53.5477H33.8149V7.64945C33.8149 4.49303 33.7522 3.94954 33.3759 3.1134C32.4562 1.08577 30.9929 0.145116 28.589 0.061502C27.732 0.0196951 26.7913 0.061502 26.4987 0.166019ZM94.393 66.0745L94.3303 94.984H53.6731H13.016L12.9533 66.0745L12.9115 37.186H53.6731H94.4348L94.393 66.0745Z" fill="#F9F7F7"/>
<path d="M51.8547 44.2095C51.0185 44.6903 50.7886 45.0666 48.531 49.5817L46.0853 54.4522L40.8594 55.2256C35.3409 56.0409 34.672 56.2499 33.9195 57.3996C33.376 58.2148 33.2088 59.1973 33.4387 60.2843C33.6269 61.1413 34.0031 61.5803 37.5149 65.0503L41.382 68.8756L40.525 74.0596C40.0024 77.1951 39.7098 79.5154 39.7934 79.9335C39.9606 80.8114 41.0267 82.1075 41.8837 82.4628C43.2842 83.0481 43.8277 82.8809 48.8864 80.2889L53.6732 77.8432L58.4601 80.3098C63.4979 82.9018 64.0413 83.069 65.4628 82.4628C66.3198 82.1075 67.3859 80.8114 67.5531 79.9335C67.6367 79.5154 67.3441 77.1951 66.8215 74.0805L65.9645 68.8965L69.7898 65.0712C73.0716 61.8102 73.6778 61.1204 73.866 60.347C74.1586 59.2809 74.0332 58.4448 73.4897 57.525C72.7372 56.2499 72.1101 56.0618 66.487 55.2256L61.2612 54.4522L58.8155 49.5817C56.537 45.0039 56.328 44.6903 55.4709 44.1886C54.2794 43.4988 53.0252 43.4988 51.8547 44.2095Z" fill="#F9F7F7"/>
</svg>
