<svg width="108" height="107" viewBox="0 0 108 107" fill="none" xmlns="http://www.w3.org/2000/svg">
<path d="M9.34089 0.437379C4.99509 1.59454 1.60074 5.06603 0.44358 9.46325C-0.14786 11.6747 -0.14786 95.3506 0.44358 97.562C1.60074 102.011 5.02081 105.456 9.44375 106.614C10.7809 106.948 16.1296 106.999 53.5446 106.999C99.9597 106.999 97.3882 107.076 100.397 105.559C102.223 104.634 104.486 102.396 105.463 100.596C107.134 97.4592 107.031 100.391 107.031 53.5126C107.031 16.0977 106.98 10.749 106.646 9.41182C105.488 4.98889 102.043 1.56883 97.5939 0.411664C95.4082 -0.154061 11.4752 -0.128346 9.34089 0.437379ZM31.0699 21.2663C32.8185 22.5778 32.8442 22.6292 32.8442 28.8265C32.8442 35.0237 32.8185 35.0752 31.0699 36.3866C30.4013 36.9009 30.0156 36.9266 24.744 36.9266C19.4725 36.9266 19.0868 36.9009 18.4182 36.3866C16.6953 35.1266 16.6439 34.9209 16.5667 29.5208C16.4639 23.8378 16.541 23.2207 17.4668 22.1149C18.6753 20.7006 19.1896 20.5977 25.0526 20.6749C29.9641 20.7263 30.427 20.7777 31.0699 21.2663ZM88.6709 25.3807C90.0338 26.3836 90.4452 27.2064 90.4452 28.8265C90.4452 30.4465 90.0338 31.2694 88.6709 32.2722C87.9766 32.8123 87.7195 32.8123 66.4534 32.8894C51.8217 32.9408 44.6215 32.8894 43.9787 32.6837C41.3815 31.938 40.3786 28.3636 42.1529 26.2293C43.4901 24.6607 42.4101 24.7121 66.1962 24.7893C87.7452 24.8407 87.9766 24.8407 88.6709 25.3807ZM31.0699 45.9525C32.8185 47.264 32.8442 47.3154 32.8442 53.5126C32.8442 59.7099 32.8185 59.7613 31.0699 61.0728C30.4013 61.5871 30.0156 61.6128 24.744 61.6128C19.4725 61.6128 19.0868 61.5871 18.4182 61.0728C16.6953 59.8128 16.6439 59.607 16.5667 54.2069C16.4639 48.524 16.541 47.9068 17.4668 46.8011C18.6753 45.3868 19.1896 45.2839 25.0526 45.3611C29.9641 45.4125 30.427 45.4639 31.0699 45.9525ZM88.6709 50.0669C90.0338 51.0697 90.4452 51.8926 90.4452 53.5126C90.4452 55.1327 90.0338 55.9555 88.6709 56.9584C87.9766 57.4984 87.7195 57.4984 66.4534 57.5756C51.8217 57.627 44.6215 57.5756 43.9787 57.3699C41.3815 56.6241 40.3786 53.0498 42.1529 50.9154C43.4901 49.3468 42.4101 49.3983 66.1962 49.4754C87.7452 49.5269 87.9766 49.5269 88.6709 50.0669ZM31.0699 70.6387C32.8185 71.9501 32.8442 72.0016 32.8442 78.1988C32.8442 84.3961 32.8185 84.4475 31.0699 85.759C30.4013 86.2732 30.0156 86.299 24.744 86.299C19.4725 86.299 19.0868 86.2732 18.4182 85.759C16.6953 84.4989 16.6439 84.2932 16.5667 78.8931C16.4639 73.2101 16.541 72.593 17.4668 71.4873C18.6753 70.0729 19.1896 69.9701 25.0526 70.0472C29.9641 70.0987 30.427 70.1501 31.0699 70.6387ZM88.6709 74.753C90.0338 75.7559 90.4452 76.5788 90.4452 78.1988C90.4452 79.8188 90.0338 80.6417 88.6709 81.6446C87.9766 82.1846 87.7195 82.1846 66.4534 82.2617C51.8217 82.3132 44.6215 82.2617 43.9787 82.056C41.3815 81.3103 40.3786 77.7359 42.1529 75.6016C43.4901 74.033 42.4101 74.0845 66.1962 74.1616C87.7452 74.213 87.9766 74.213 88.6709 74.753Z" fill="#F9F7F7"/>
</svg>
