<svg width="136" height="107" viewBox="0 0 136 107" fill="none" xmlns="http://www.w3.org/2000/svg">
<path d="M66.2077 0.123081C65.4987 0.254379 64.317 0.648274 63.5818 1.01591C62.7677 1.43606 49.9267 11.9399 31.755 27.118C-0.334305 53.8767 0.558525 53.0626 0.97868 54.7957C1.08372 55.1371 2.50174 57.0278 4.18236 58.9973C6.70329 61.9909 7.35978 62.6211 8.09505 62.7787C8.59399 62.8575 9.25048 62.8575 9.53934 62.7524C9.82819 62.6736 23.1156 51.7234 39.029 38.4622C54.9686 25.1748 68.0459 14.3033 68.1247 14.3033C68.2035 14.3033 81.2808 25.1748 97.2204 38.4622C113.134 51.7234 126.421 62.6736 126.71 62.7524C126.999 62.8575 127.655 62.8575 128.154 62.7787C128.89 62.6211 129.546 61.9909 132.067 58.9973C133.748 57.0278 135.166 55.1371 135.271 54.7957C135.665 53.1676 135.349 52.8525 125.633 44.7645L116.311 36.9917L116.18 19.3452L116.049 1.69866L115.313 0.98965L114.604 0.254379L106.122 0.1756C100.608 0.123081 97.3255 0.1756 96.7215 0.359418C94.9358 0.884611 94.9358 0.937131 94.857 10.4957L94.7783 19.0826L84.0643 10.1543C72.5888 0.569495 72.2475 0.333158 69.0438 0.0443016C68.1772 -0.0344775 66.8905 -0.00821779 66.2077 0.123081Z" fill="#F9F7F7"/>
<path d="M44.0182 41.4033L20.0693 61.1506V81.6331C20.0693 95.7346 20.1744 102.483 20.3582 103.192C20.7521 104.637 22.5377 106.317 24.0871 106.685C24.9274 106.921 30.0743 107 41.3134 107H57.3581V90.9816V74.9632H68.1246H78.891V90.9816V107H94.9357C105.623 107 111.348 106.895 112.083 106.711C113.554 106.344 115.077 105.083 115.681 103.744C116.154 102.72 116.18 101.538 116.18 81.8957V61.1506L92.3097 41.4821C79.2061 30.6631 68.3609 21.7873 68.2296 21.7348C68.0983 21.6823 57.2005 30.5318 44.0182 41.4033Z" fill="#F9F7F7"/>
</svg>
