<svg width="108" height="107" viewBox="0 0 108 107" fill="none" xmlns="http://www.w3.org/2000/svg">
<path d="M84.869 0.312268C84.1368 0.563297 83.2582 1.31639 81.0408 3.49198L78.1539 6.33698L89.4293 17.5915L100.684 28.846L103.508 25.9591C106.541 22.884 107.043 22.0473 107.043 20.1645C107.043 18.3027 106.541 17.717 97.8179 9.01463C91.6468 2.8644 89.3457 0.709731 88.6344 0.395944C87.5257 -0.106115 86.166 -0.127034 84.869 0.312268Z" fill="#F9F7F7"/>
<path d="M44.223 40.0796L18.1368 66.1657L29.4959 77.5248L40.8341 88.863L66.983 62.7141L93.132 36.5652L81.8356 25.2688C75.6226 19.0558 70.4975 13.9725 70.4347 13.9725C70.3719 13.9725 58.5945 25.7081 44.223 40.0796Z" fill="#F9F7F7"/>
<path d="M10.5224 74.2196C9.95754 75.8722 -0.0208863 106.958 3.28452e-05 107C0.0627903 107.042 32.7594 96.4775 32.8849 96.373C32.9268 96.3102 27.948 91.2478 21.7978 85.0975C14.4552 77.7758 10.5851 74.0313 10.5224 74.2196Z" fill="#F9F7F7"/>
</svg>
