<svg width="30" height="37" viewBox="0 0 30 37" fill="none" xmlns="http://www.w3.org/2000/svg">
<path d="M10.6238 0.0707436C10.0723 0.178188 9.32013 0.586487 8.90467 1.00195C8.20984 1.69678 7.90183 2.58501 7.89467 3.87437V4.43309H5.7314C3.28876 4.43309 2.75153 4.4904 2.10685 4.79125C1.52663 5.06345 0.831806 5.75111 0.56677 6.317C-0.0349342 7.59204 0.222939 9.06765 1.21145 10.049C1.55528 10.3928 2.36472 10.8799 2.58678 10.8799C2.64408 10.8799 2.66557 13.9028 2.6799 21.9255L2.70139 32.9782L2.89479 33.5513C3.16699 34.3464 3.5538 34.9552 4.0982 35.4782C4.66409 36.0082 5.25863 36.3377 6.0036 36.524C6.54083 36.6601 6.82736 36.6672 15.1294 36.6672C23.4315 36.6672 23.7181 36.6601 24.2553 36.524C25.9959 36.0799 27.2495 34.6329 27.5217 32.749C27.5647 32.4481 27.5933 28.1717 27.5933 21.5745V10.8943L27.8655 10.8011C28.8898 10.4716 29.7781 9.37566 29.9643 8.22956C30.1577 7.01899 29.556 5.66516 28.5174 4.99898C27.7366 4.50473 27.6148 4.48324 24.8642 4.44742L22.3857 4.41877L22.3427 3.58068C22.2926 2.65664 22.1422 2.1194 21.7912 1.56068C21.3112 0.815708 20.4445 0.228333 19.5778 0.0635796C19.105 -0.022377 11.0823 -0.022377 10.6238 0.0707436ZM19.678 1.86869C20.3227 2.21968 20.5806 2.71394 20.6307 3.69529L20.6666 4.43309H15.1294H9.59949L9.62098 3.65948C9.64964 2.97898 9.67113 2.8572 9.8502 2.55635C9.95765 2.37011 10.1439 2.14805 10.2657 2.0621C10.7599 1.7111 10.7384 1.7111 15.2369 1.73259C19.019 1.74692 19.4846 1.76124 19.678 1.86869ZM27.4142 6.34566C27.7796 6.53906 27.9873 6.76112 28.1377 7.11927C28.4099 7.77828 28.1807 8.57339 27.6005 8.98169L27.2925 9.19658L15.287 9.21807C6.89899 9.2324 3.19564 9.21807 3.0094 9.16077C2.29309 8.95304 1.83465 8.12928 2.02089 7.37715C2.15699 6.81126 2.60827 6.36714 3.20281 6.21672C3.32458 6.18807 8.75424 6.17374 15.2727 6.17374L27.1277 6.18807L27.4142 6.34566ZM25.8598 21.5172C25.8742 28.7018 25.8527 32.2046 25.8025 32.5484C25.6521 33.5369 25.1364 34.2676 24.3126 34.6759L23.8327 34.9123L15.3157 34.9338C6.07523 34.9552 6.31877 34.9624 5.69558 34.5684C5.1082 34.196 4.62111 33.4725 4.46352 32.7418C4.40621 32.4696 4.38473 29.3107 4.38473 21.6533V10.9516L15.1151 10.9659L25.8383 10.9874L25.8598 21.5172Z" fill="#112D4E"/>
<path d="M9.48495 13.5231C9.37034 13.6449 9.25572 13.8383 9.22707 13.9672C9.20558 14.089 9.18409 17.8497 9.18409 22.3195C9.18409 30.9797 9.17693 30.7147 9.52076 31.0298C9.74282 31.2232 10.1225 31.2591 10.4233 31.1158C10.9319 30.8723 10.9032 31.4525 10.9032 22.2335C10.9032 13.2438 10.9247 13.7022 10.5164 13.43C10.4162 13.3655 10.1941 13.3154 10.015 13.3154C9.75714 13.3154 9.65686 13.3584 9.48495 13.5231Z" fill="#112D4E"/>
<path d="M14.6137 13.4801C14.5134 13.5661 14.3916 13.7094 14.3486 13.7953C14.2913 13.9028 14.2698 16.3812 14.2698 22.2335C14.2698 31.4525 14.2412 30.8723 14.7498 31.1158C15.0506 31.2591 15.4303 31.2232 15.6523 31.0298C15.9961 30.7147 15.989 30.9797 15.989 22.3195C15.989 17.8497 15.9675 14.089 15.946 13.9672C15.9173 13.8383 15.8027 13.6449 15.6881 13.5231C15.4159 13.2509 14.9073 13.2294 14.6137 13.4801Z" fill="#112D4E"/>
<path d="M19.599 13.559L19.3555 13.8025V22.1905C19.3555 29.4038 19.3698 30.6144 19.4629 30.7863C19.5704 31.0084 19.9572 31.2233 20.2365 31.2233C20.5016 31.2233 20.8812 30.9296 20.9815 30.6502C21.0961 30.3207 21.1104 14.3469 21.003 13.9458C20.8955 13.559 20.566 13.3154 20.1649 13.3154C19.8927 13.3154 19.8067 13.3512 19.599 13.559Z" fill="#112D4E"/>
</svg>
