<svg width="24" height="29" viewBox="0 0 24 29" fill="none" xmlns="http://www.w3.org/2000/svg">
<path d="M8.18523 0.0551701C7.75517 0.138948 7.16872 0.457306 6.84478 0.781248C6.30301 1.32302 6.06284 2.01558 6.05726 3.02092V3.45657H4.37052C2.46596 3.45657 2.04707 3.50125 1.5444 3.73583C1.09199 3.94807 0.550225 4.48425 0.343572 4.92549C-0.125588 5.91966 0.0754807 7.07021 0.846242 7.83539C1.11433 8.10348 1.74546 8.48327 1.91861 8.48327C1.96329 8.48327 1.98004 10.8402 1.99121 17.0957L2.00797 25.7137L2.15877 26.1605C2.37101 26.7805 2.67261 27.2552 3.09709 27.6629C3.53832 28.0762 4.0019 28.3332 4.58276 28.4784C5.00165 28.5845 5.22506 28.5901 11.6983 28.5901C18.1716 28.5901 18.395 28.5845 18.8139 28.4784C20.1711 28.1321 21.1485 27.0039 21.3608 25.535C21.3943 25.3004 21.4166 21.966 21.4166 16.822V8.49445L21.6289 8.42184C22.4276 8.16492 23.1201 7.31038 23.2653 6.41674C23.4161 5.47284 22.947 4.41723 22.1371 3.8978C21.5283 3.51242 21.4334 3.49567 19.2887 3.46774L17.3562 3.4454L17.3227 2.79193C17.2836 2.07144 17.1663 1.65254 16.8926 1.2169C16.5184 0.636032 15.8426 0.178045 15.1668 0.0495834C14.7981 -0.0174389 8.54268 -0.0174389 8.18523 0.0551701ZM15.245 1.45706C15.7476 1.73074 15.9487 2.11612 15.9878 2.88129L16.0157 3.45657H11.6983H7.38654L7.4033 2.85337C7.42564 2.32277 7.4424 2.22782 7.58203 1.99324C7.6658 1.84803 7.81102 1.67488 7.90597 1.60786C8.29135 1.33419 8.27459 1.33419 11.7821 1.35094C14.7311 1.36211 15.0942 1.37328 15.245 1.45706ZM21.277 4.94783C21.5618 5.09863 21.7238 5.27177 21.8411 5.55103C22.0533 6.06487 21.8746 6.68483 21.4222 7.00319L21.1821 7.17075L11.8212 7.1875C5.28091 7.19867 2.39335 7.1875 2.24813 7.14282C1.68961 6.98085 1.33216 6.33855 1.47737 5.7521C1.58349 5.31087 1.93536 4.96458 2.39894 4.84729C2.49388 4.82495 6.72749 4.81378 11.81 4.81378L21.0536 4.82495L21.277 4.94783ZM20.065 16.7773C20.0762 22.3793 20.0594 25.1105 20.0203 25.3786C19.903 26.1493 19.5009 26.719 18.8586 27.0374L18.4844 27.2217L11.8436 27.2385C4.63861 27.2552 4.82851 27.2608 4.34259 26.9536C3.88461 26.6632 3.50481 26.0991 3.38193 25.5294C3.33725 25.3171 3.3205 22.8541 3.3205 16.8835V8.53913L11.6872 8.5503L20.0483 8.56705L20.065 16.7773Z" fill="#F9F7F7"/>
<path d="M7.29709 10.5441C7.20772 10.6391 7.11836 10.7899 7.09602 10.8904C7.07926 10.9854 7.06251 13.9176 7.06251 17.4028C7.06251 24.1553 7.05692 23.9487 7.32501 24.1944C7.49816 24.3452 7.79417 24.3732 8.02875 24.2615C8.4253 24.0716 8.40296 24.524 8.40296 17.3358C8.40296 10.3263 8.41972 10.6838 8.10136 10.4715C8.02317 10.4213 7.85003 10.3822 7.7104 10.3822C7.50933 10.3822 7.43113 10.4157 7.29709 10.5441Z" fill="#F9F7F7"/>
<path d="M11.2957 10.5106C11.2175 10.5777 11.1225 10.6894 11.089 10.7564C11.0443 10.8402 11.0276 12.7726 11.0276 17.3358C11.0276 24.524 11.0052 24.0716 11.4018 24.2615C11.6364 24.3732 11.9324 24.3452 12.1055 24.1944C12.3736 23.9487 12.368 24.1553 12.368 17.4028C12.368 13.9176 12.3513 10.9854 12.3345 10.8904C12.3122 10.7899 12.2228 10.6391 12.1334 10.5441C11.9212 10.3319 11.5247 10.3151 11.2957 10.5106Z" fill="#F9F7F7"/>
<path d="M15.1831 10.5723L14.9932 10.7622V17.3025C14.9932 22.9268 15.0043 23.8707 15.0769 24.0048C15.1607 24.1779 15.4623 24.3455 15.6801 24.3455C15.8868 24.3455 16.1828 24.1165 16.261 23.8986C16.3504 23.6417 16.3615 11.1867 16.2778 10.8739C16.194 10.5723 15.9371 10.3824 15.6243 10.3824C15.4121 10.3824 15.345 10.4103 15.1831 10.5723Z" fill="#F9F7F7"/>
</svg>
