<svg width="108" height="107" viewBox="0 0 108 107" fill="none" xmlns="http://www.w3.org/2000/svg">
<path d="M49.1801 0.349781C38.9011 2.21643 30.7625 10.1559 28.6469 20.3603C28.2487 22.3265 28.174 23.3967 28.2736 26.3585C28.4229 30.7886 28.9207 32.8544 30.8122 36.6873C36.1384 47.5636 48.1099 53.064 60.0315 50.1023C67.0253 48.3352 73.0981 43.3574 76.3585 36.6873C78.2252 32.8793 78.7478 30.7886 78.8972 26.3585C78.9967 23.3718 78.9221 22.3265 78.5238 20.3603C76.0599 8.41372 65.5071 -0.123104 53.3614 0.00134277C52.0423 0.00134277 50.1756 0.175564 49.1801 0.349781Z" fill="#F9F7F7"/>
<path d="M43.7543 56.2498C19.7616 58.6889 1.34399 78.0274 0.149332 102.07L0 105.231L0.871104 106.102L1.7671 106.998H53.3116C109.983 106.998 105.901 107.122 106.723 105.504C107.171 104.658 107.196 102.717 106.822 99.3321C105.08 83.3286 95.8214 69.4657 81.7095 61.7502C77.5034 59.4604 71.4056 57.4195 66.1541 56.5733C63.2421 56.1004 47.4876 55.8764 43.7543 56.2498Z" fill="#F9F7F7"/>
</svg>
