<svg width="168" height="106" viewBox="0 0 168 106" fill="none" xmlns="http://www.w3.org/2000/svg">
<path d="M79.1259 0.459976C76.4696 1.05028 72.7637 2.854 70.6321 4.62492C65.5161 8.88825 63.0565 14.4634 63.4172 20.9567C63.6468 24.8593 64.5322 27.4501 66.6639 30.6968C69.4515 34.829 73.8788 37.8789 79.0603 39.1907C82.1431 39.9778 87.2918 39.7154 90.4729 38.5676C96.7368 36.3703 101.853 30.9264 103.492 24.6954C104.116 22.2357 104.116 17.3821 103.492 14.9225C100.803 4.69051 89.8171 -1.83566 79.1259 0.459976Z" fill="#F9F7F7"/>
<path d="M133.598 16.4967C126.482 18.3004 121.661 24.4002 121.595 31.6151C121.563 40.3385 128.613 47.1926 137.599 47.1926C144.748 47.1926 150.848 42.6997 152.882 35.9768C153.767 33.0581 153.636 28.9587 152.554 26.1383C150.98 22.0718 147.438 18.6611 143.076 16.9886C140.748 16.1031 136.058 15.8408 133.598 16.4967Z" fill="#F9F7F7"/>
<path d="M26.5232 17.8741C23.7684 18.5299 21.4728 19.8089 19.3083 21.875C15.7009 25.2857 14.2579 28.9587 14.5203 33.9435C14.6515 36.5671 14.8482 37.3214 15.8321 39.3875C17.2751 42.3718 18.9476 44.3067 21.4728 45.9464C26.3592 49.0947 32.7542 49.3899 38.067 46.7007C41.1825 45.1266 44.2652 41.6175 45.4786 38.338C49.6764 26.5975 38.8213 14.8569 26.5232 17.8741Z" fill="#F9F7F7"/>
<path d="M79.454 48.8324C72.7967 49.685 65.6146 52.4726 60.1051 56.3752C52.0047 62.0815 46.0361 70.9033 43.806 80.5122C43.0845 83.6605 42.6582 89.2028 42.6582 95.893C42.6582 102.714 42.9206 104.026 44.3963 104.912C45.413 105.535 46.3968 105.567 84.5372 105.567C109.133 105.567 123.924 105.436 124.449 105.239C124.908 105.076 125.596 104.452 125.99 103.862C126.646 102.813 126.646 102.452 126.515 93.2694C126.318 82.8734 126.088 81.0369 124.022 75.429C121.366 68.2141 115.692 60.8681 109.199 56.2768C104.739 53.1285 98.4094 50.4393 92.8343 49.3243C89.7188 48.7012 82.5695 48.4388 79.454 48.8324Z" fill="#F9F7F7"/>
<path d="M132.844 54.4731C128.941 55.0306 123.038 57.3591 120.251 59.4251C119.66 59.8515 119.726 59.9826 121.399 62.2127C127.958 70.8049 130.876 79.8563 130.876 91.6952V95.729H148.454H166.032L167.016 94.7452L168 93.7285L167.869 86.2841C167.705 79.3972 167.639 78.6101 166.819 75.9537C162.359 61.1305 148.29 52.2759 132.844 54.4731Z" fill="#F9F7F7"/>
<path d="M27.343 56.408C20.0297 57.0967 13.6347 60.1794 8.48593 65.4922C4.25539 69.8211 1.82857 74.3796 0.647961 80.1514C-0.0735255 83.6277 -0.2375 94.7779 0.385602 96.1881C1.23827 97.9918 1.40224 98.0246 19.9969 98.0246H37.083V93.1382C37.083 84.3164 38.0341 78.6101 40.5265 72.6086C41.8383 69.3619 44.0355 65.5577 46.0032 62.9014C47.0199 61.5896 47.2166 61.1304 46.8559 60.9009C45.3473 59.8842 41.6087 58.2445 39.2475 57.5558C36.7879 56.8343 35.6728 56.6375 31.18 56.244C30.5568 56.1784 28.8187 56.2768 27.343 56.408Z" fill="#F9F7F7"/>
</svg>
