<svg width="108" height="107" viewBox="0 0 108 107" fill="none" xmlns="http://www.w3.org/2000/svg">
<path d="M48.4585 0.13422C38.4491 1.16029 29.3401 4.74106 21.1944 10.8137C18.5559 12.803 12.8602 18.4778 10.9127 21.0954C5.74051 28.0056 2.41102 35.5441 0.945202 43.5433C-1.86079 58.704 1.61529 73.4878 10.9127 85.9262C12.8602 88.5438 18.5559 94.2186 21.1944 96.2079C28.8166 101.904 37.2765 105.359 46.9927 106.741C49.4637 107.097 57.6932 107.076 60.2897 106.741C72.4141 105.066 83.2611 99.684 91.5116 91.266C94.1501 88.5856 94.7783 87.8737 96.4535 85.654C101.898 78.4715 105.458 69.6766 106.819 60.107C107.175 57.636 107.175 49.3856 106.819 46.9146C105.604 38.4548 102.631 30.4347 98.2334 23.8804C89.627 11.0231 76.3928 2.68892 61.0227 0.406442C58.447 0.0295185 51.0132 -0.138003 48.4585 0.13422ZM55.5363 19.6714C55.997 19.9018 56.5833 20.4881 56.8556 20.9697L57.3581 21.8283V36.7168V51.6262L66.5718 58.9971C73.4821 64.5254 75.8693 66.5356 76.1415 67.101C76.3299 67.5198 76.4975 68.3365 76.4975 68.9437C76.4975 70.954 74.8641 72.5664 72.791 72.5664C72.2257 72.5664 71.4718 72.4198 71.1158 72.2523C70.1735 71.7916 50.8667 56.254 50.3641 55.542C49.9243 54.9557 49.9243 54.7044 49.8615 38.392L49.8196 21.8492L50.2803 21.0325C51.0132 19.7133 52.6884 18.8966 54.1124 19.127C54.4684 19.1689 55.0966 19.4201 55.5363 19.6714Z" fill="#F9F7F7"/>
</svg>
