<svg width="89" height="107" viewBox="0 0 89 107" fill="none" xmlns="http://www.w3.org/2000/svg">
<path d="M42.7492 0.320541C42.3521 0.48777 41.7458 0.884956 41.4323 1.19852C40.2825 2.28554 40.1362 2.76634 40.0317 6.13194L39.9272 9.24667L38.004 9.62295C34.3248 10.3755 30.3321 12.0687 26.862 14.3682C24.4162 15.9987 20.2144 20.2214 18.5212 22.7508C16.3053 26.0955 14.7166 29.8165 13.8386 33.7465C13.4833 35.4188 13.4205 36.7358 13.2742 45.6619C13.107 56.7412 13.0025 57.8909 11.7064 61.7791C10.1177 66.5871 7.73458 70.3289 3.80458 74.2589C0.376277 77.6454 0 78.3771 0 81.4082C0 83.2687 0.0627128 83.6241 0.564415 84.6693C1.67234 86.906 3.86729 88.5575 6.3549 89.0383C7.96453 89.3309 80.9204 89.3309 82.5928 89.0174C84.9759 88.5784 87.1708 86.906 88.2787 84.6693C88.7804 83.6241 88.8432 83.2687 88.8432 81.4082C88.8432 78.398 88.4251 77.6036 85.2267 74.4471C82.5092 71.7713 81.2967 70.2453 79.8334 67.7786C77.9938 64.7057 76.7605 61.3401 76.0915 57.6819C75.778 56.0722 75.6944 53.8355 75.5689 45.6619C75.4435 36.7149 75.3808 35.4188 75.0045 33.7465C73.6039 27.517 70.9491 22.7299 66.392 18.1519C61.8766 13.6575 56.7133 10.8145 50.8392 9.62295L48.916 9.24667L48.8115 6.13194C48.707 2.76634 48.5606 2.28554 47.4109 1.19852C46.1984 0.0278778 44.2543 -0.327492 42.7492 0.320541Z" fill="#F9F7F7"/>
<path d="M28.1165 93.9508C28.1165 94.6406 29.4125 97.7553 30.2905 99.1559C33.886 104.884 40.8681 107.978 47.3902 106.723C51.9682 105.845 55.7937 103.295 58.3858 99.3859C59.3056 98.0062 60.7062 94.7869 60.7271 93.9926C60.7271 93.6581 59.8073 93.6372 44.4218 93.6372C30.2069 93.6372 28.1165 93.679 28.1165 93.9508Z" fill="#F9F7F7"/>
</svg>
